<svg width="44" height="27" viewBox="0 0 44 27" fill="none" xmlns="http://www.w3.org/2000/svg">
<path d="M8.52809 13.5L1 1H16.0562L8.52809 13.5H28.4157V4.5H43.5V20.5H28.4157V13.5H8.52809L16.0562 26H1L8.52809 13.5Z" fill="white"/>
<path d="M8.52809 13.5L1 26H16.0562L1 1H16.0562L8.52809 13.5ZM8.52809 13.5H28.4157M28.4157 13.5V4.5H43.5V20.5H28.4157V13.5Z" stroke="black"/>
<path d="M34.9205 9.44318L35.1761 10.3466C35.0256 10.4034 34.8793 10.4872 34.7372 10.598C34.5923 10.706 34.473 10.8537 34.3793 11.0412C34.2855 11.2287 34.2386 11.4688 34.2386 11.7614C34.2386 12.1619 34.331 12.4957 34.5156 12.7628C34.6974 13.027 34.929 13.1591 35.2102 13.1591C35.4602 13.1591 35.6577 13.0682 35.8026 12.8864C35.9474 12.7045 36.0682 12.4205 36.1648 12.0341L36.4034 11.0625C36.5455 10.4773 36.7628 10.0412 37.0554 9.75426C37.3452 9.46733 37.7187 9.32386 38.1761 9.32386C38.5511 9.32386 38.8864 9.43182 39.1818 9.64773C39.4773 9.8608 39.7102 10.1591 39.8807 10.5426C40.0511 10.9261 40.1364 11.3722 40.1364 11.8807C40.1364 12.5483 39.9915 13.1009 39.7017 13.5384C39.4119 13.9759 38.9886 14.2528 38.4318 14.3693L38.1932 13.4148C38.5455 13.3239 38.8097 13.152 38.9858 12.8991C39.1619 12.6435 39.25 12.3097 39.25 11.8977C39.25 11.429 39.1506 11.0568 38.9517 10.7812C38.75 10.5028 38.5085 10.3636 38.2273 10.3636C38 10.3636 37.8097 10.4432 37.6562 10.6023C37.5 10.7614 37.3835 11.0057 37.3068 11.3352L37.0511 12.4261C36.9091 13.0256 36.6889 13.4659 36.3906 13.7472C36.0895 14.0256 35.7131 14.1648 35.2614 14.1648C34.892 14.1648 34.5653 14.0611 34.2812 13.8537C33.9972 13.6435 33.7741 13.358 33.6122 12.9972C33.4503 12.6335 33.3693 12.2216 33.3693 11.7614C33.3693 11.1136 33.5114 10.6051 33.7955 10.2358C34.0795 9.86364 34.4545 9.59943 34.9205 9.44318Z" fill="black"/>
</svg>
